<mxfile host="app.diagrams.net" modified="2024-06-24T16:29:20.921Z" agent="Mozilla/5.0 (Macintosh; Intel Mac OS X 10_15_7) AppleWebKit/537.36 (KHTML, like Gecko) Chrome/126.0.0.0 Safari/537.36" version="24.4.9" etag="4bUS8nG874M1BTpUG8qo" type="github">
  <diagram name="第 1 页" id="o3uVooTrCAZJhvGLJ6qi">
    <mxGraphModel>
      <root>
        <mxCell id="0" />
        <mxCell id="1" parent="0" />
      </root>
    </mxGraphModel>
  </diagram>
</mxfile>
